<svg width="40" height="40" viewBox="0 0 40 40" fill="none" xmlns="http://www.w3.org/2000/svg">
<g clip-path="url(#clip0_6_48)">
<path d="M19.98 0C8.94 0 0 8.96 0 20C0 31.04 8.94 40 19.98 40C31.04 40 40 31.04 40 20C40 8.96 31.04 0 19.98 0ZM13 12C14.66 12 16 13.34 16 15C16 16.66 14.66 18 13 18C11.34 18 10 16.66 10 15C10 13.34 11.34 12 13 12ZM29.42 25.44C27.6 29.34 24.08 32 20 32C15.92 32 12.4 29.34 10.58 25.44C10.26 24.78 10.74 24 11.48 24H28.52C29.26 24 29.74 24.78 29.42 25.44ZM27 18C25.34 18 24 16.66 24 15C24 13.34 25.34 12 27 12C28.66 12 30 13.34 30 15C30 16.66 28.66 18 27 18Z" fill="#041420"/>
</g>
<defs>
<clipPath id="clip0_6_48">
<rect width="40" height="40" fill="white"/>
</clipPath>
</defs>
</svg>
