<svg width="47" height="47" viewBox="0 0 47 47" fill="none" xmlns="http://www.w3.org/2000/svg">
<g clip-path="url(#clip0_28_48)">
<path d="M23.5047 0C22.0689 0 20.8941 1.17536 20.8941 2.6119V23.5071C20.8941 24.9437 22.0689 26.119 23.5047 26.119C24.9405 26.119 26.1153 24.9437 26.1153 23.5071V2.6119C26.1153 1.17536 24.9405 0 23.5047 0ZM36.9231 7.47004C36.4429 7.95042 36.171 8.60058 36.1661 9.27996C36.1612 9.95934 36.4238 10.6133 36.897 11.1006C39.847 14.2349 41.6744 18.4139 41.7788 23.037C42.0138 33.0406 33.7382 41.6599 23.7396 41.7643C21.3205 41.8021 18.9181 41.3576 16.6725 40.4568C14.4269 39.5559 12.3831 38.2167 10.6602 36.5173C8.93735 34.8178 7.56993 32.7922 6.63771 30.5585C5.7055 28.3248 5.22715 25.9277 5.23056 23.5071C5.23056 18.7012 7.08408 14.3393 10.1124 11.0745C11.0783 10.0558 11.0783 8.46257 10.0863 7.47004C9.84094 7.22235 9.54822 7.02669 9.2256 6.89476C8.90298 6.76283 8.55708 6.69735 8.20859 6.70223C7.86009 6.7071 7.51616 6.78224 7.19735 6.92314C6.87854 7.06404 6.59141 7.26782 6.35311 7.52228C2.4354 11.6741 0.177939 17.1208 0.00937884 22.828C-0.356104 35.5741 10.0079 46.5964 22.7476 46.9881C36.0616 47.406 47 36.7234 47 23.481C47 17.2908 44.5983 11.7013 40.6824 7.52228C39.6903 6.4514 37.9674 6.42528 36.9231 7.47004V7.47004Z" fill="#F8F8F8"/>
</g>
<defs>
<clipPath id="clip0_28_48">
<rect width="47" height="47" fill="white"/>
</clipPath>
</defs>
</svg>
