<svg width="40" height="40" viewBox="0 0 40 40" fill="none" xmlns="http://www.w3.org/2000/svg">
<path d="M38.3861 17.6333L38.3728 17.6276L2.77943 3.14932C2.48005 3.02643 2.15428 2.97823 1.83126 3.00904C1.50824 3.03985 1.19804 3.1487 0.928421 3.32586C0.643556 3.50892 0.409565 3.75856 0.247502 4.05232C0.085439 4.34608 0.000387615 4.67475 4.55052e-07 5.00875V14.2683C0.000158747 14.7249 0.162731 15.1672 0.459697 15.5188C0.756664 15.8705 1.16942 16.1095 1.62682 16.1948L21.0395 19.715C21.1157 19.7292 21.1846 19.7691 21.2341 19.8277C21.2836 19.8863 21.3107 19.9601 21.3107 20.0362C21.3107 20.1124 21.2836 20.1861 21.2341 20.2448C21.1846 20.3034 21.1157 20.3433 21.0395 20.3575L1.62765 23.8777C1.17038 23.9627 0.757648 24.2015 0.460549 24.5528C0.163451 24.9041 0.000583406 25.3461 4.55052e-07 25.8025V35.0637C-0.000220879 35.3827 0.0803027 35.6967 0.234345 35.9776C0.388388 36.2584 0.61113 36.4974 0.882583 36.6731C1.20911 36.8858 1.59232 36.9995 1.98435 37C2.2569 36.9998 2.52664 36.9461 2.77776 36.8423L38.3703 22.4466L38.3861 22.4392C38.8652 22.2373 39.2734 21.902 39.5603 21.4749C39.8471 21.0479 40 20.5477 40 20.0362C40 19.5248 39.8471 19.0246 39.5603 18.5975C39.2734 18.1705 38.8652 17.8352 38.3861 17.6333V17.6333Z" fill="#F66B0E"/>
</svg>
